<mxfile host="app.diagrams.net" modified="2023-03-29T13:54:49.565Z" agent="Mozilla/5.0 (Macintosh; Intel Mac OS X 10_15_7) AppleWebKit/537.36 (KHTML, like Gecko) Chrome/111.0.0.0 Safari/537.36" etag="Xs8hMcPGe2YZ7NpqJOS7" version="21.1.1" type="device">
  <diagram id="VYW9Uvl8YYTAr027NG2u" name="Page-1">
    <mxGraphModel dx="794" dy="491" grid="1" gridSize="10" guides="1" tooltips="1" connect="1" arrows="1" fold="1" page="1" pageScale="1" pageWidth="850" pageHeight="1100" math="0" shadow="0">
      <root>
        <mxCell id="0" />
        <mxCell id="1" parent="0" />
        <mxCell id="Do1l3_DUHeZ8VH6JxnVw-5" value="Graph" style="swimlane;startSize=30;fontSize=16;fillColor=#d5e8d4;strokeColor=#82b366;" parent="1" vertex="1">
          <mxGeometry x="80" y="80" width="320" height="300" as="geometry" />
        </mxCell>
        <mxCell id="Do1l3_DUHeZ8VH6JxnVw-7" value="&lt;div style=&quot;font-size: 14px;&quot;&gt;&lt;span style=&quot;background-color: initial;&quot;&gt;&lt;font style=&quot;font-size: 14px;&quot;&gt;&lt;b&gt;vertList&lt;/b&gt;: dict&lt;/font&gt;&lt;/span&gt;&lt;/div&gt;&lt;div style=&quot;font-size: 14px;&quot;&gt;&lt;span style=&quot;background-color: initial;&quot;&gt;&lt;font style=&quot;font-size: 14px;&quot;&gt;&lt;b&gt;numVertices&lt;/b&gt;: int&lt;/font&gt;&lt;/span&gt;&lt;/div&gt;" style="rounded=0;whiteSpace=wrap;html=1;align=left;verticalAlign=top;" parent="Do1l3_DUHeZ8VH6JxnVw-5" vertex="1">
          <mxGeometry y="30" width="320" height="70" as="geometry" />
        </mxCell>
        <mxCell id="Do1l3_DUHeZ8VH6JxnVw-9" value="&lt;div style=&quot;font-size: 14px;&quot;&gt;&lt;b&gt;addVertex&lt;/b&gt;(&lt;b style=&quot;&quot;&gt;key&lt;/b&gt;: Any): Vertex&lt;/div&gt;&lt;div style=&quot;font-size: 14px;&quot;&gt;&lt;b&gt;getVertex&lt;/b&gt;(&lt;b&gt;n&lt;/b&gt;: int): Vertex&lt;/div&gt;&lt;div style=&quot;font-size: 14px;&quot;&gt;&lt;b&gt;__contains&lt;/b&gt;(&lt;b&gt;n&lt;/b&gt;: int): boolean&lt;/div&gt;&lt;div style=&quot;font-size: 14px;&quot;&gt;&lt;b&gt;addEdge&lt;/b&gt;(&lt;b&gt;f&lt;/b&gt;: Vertex, &lt;b&gt;t&lt;/b&gt;: Vertex, &lt;b&gt;weight&lt;/b&gt;=0: int): None&lt;/div&gt;&lt;div style=&quot;font-size: 14px;&quot;&gt;&lt;b&gt;getVertices&lt;/b&gt;(): dict_keys&lt;/div&gt;&lt;div style=&quot;font-size: 14px;&quot;&gt;&lt;b&gt;__iter__&lt;/b&gt;(): list&lt;/div&gt;&lt;div style=&quot;font-size: 14px;&quot;&gt;&lt;b&gt;BFS&lt;/b&gt;(&lt;b&gt;vertex_ith&lt;/b&gt;: int): list&lt;/div&gt;&lt;div style=&quot;font-size: 14px;&quot;&gt;&lt;b&gt;DFS&lt;/b&gt;(&lt;b&gt;vertex_ith&lt;/b&gt;: int): list&lt;/div&gt;&lt;div style=&quot;&quot;&gt;&lt;font style=&quot;font-size: 14px;&quot;&gt;&lt;b&gt;Find_SCC_by_Kosaraju&lt;/b&gt;(): dict&lt;/font&gt;&lt;br&gt;&lt;/div&gt;&lt;div style=&quot;&quot;&gt;&lt;span style=&quot;font-size: 14px;&quot;&gt;&lt;b&gt;KL_partition&lt;/b&gt;(): list&lt;/span&gt;&lt;/div&gt;" style="rounded=0;whiteSpace=wrap;html=1;align=left;verticalAlign=top;" parent="Do1l3_DUHeZ8VH6JxnVw-5" vertex="1">
          <mxGeometry y="100" width="320" height="200" as="geometry" />
        </mxCell>
        <mxCell id="Do1l3_DUHeZ8VH6JxnVw-16" style="rounded=0;orthogonalLoop=1;jettySize=auto;html=1;fontSize=16;entryX=1;entryY=0.5;entryDx=0;entryDy=0;" parent="1" target="Do1l3_DUHeZ8VH6JxnVw-9" edge="1">
          <mxGeometry relative="1" as="geometry">
            <mxPoint x="752" y="280" as="sourcePoint" />
          </mxGeometry>
        </mxCell>
        <mxCell id="Do1l3_DUHeZ8VH6JxnVw-10" value="Vertex" style="swimlane;startSize=30;fontSize=16;fillColor=#dae8fc;strokeColor=#6c8ebf;" parent="1" vertex="1">
          <mxGeometry x="750" y="160" width="320" height="220" as="geometry" />
        </mxCell>
        <mxCell id="Do1l3_DUHeZ8VH6JxnVw-11" value="&lt;div style=&quot;font-size: 14px;&quot;&gt;&lt;span style=&quot;background-color: initial;&quot;&gt;&lt;font style=&quot;font-size: 14px;&quot;&gt;&lt;b&gt;id&lt;/b&gt;: Any&lt;/font&gt;&lt;/span&gt;&lt;/div&gt;&lt;div style=&quot;font-size: 14px;&quot;&gt;&lt;span style=&quot;background-color: initial;&quot;&gt;&lt;font style=&quot;font-size: 14px;&quot;&gt;&lt;b&gt;connectedTo&lt;/b&gt;: dict&lt;/font&gt;&lt;/span&gt;&lt;/div&gt;" style="rounded=0;whiteSpace=wrap;html=1;align=left;verticalAlign=top;" parent="Do1l3_DUHeZ8VH6JxnVw-10" vertex="1">
          <mxGeometry y="30" width="320" height="70" as="geometry" />
        </mxCell>
        <mxCell id="Do1l3_DUHeZ8VH6JxnVw-12" value="&lt;div style=&quot;font-size: 14px;&quot;&gt;&lt;b&gt;addNeighbor&lt;/b&gt;(&lt;b&gt;nbr&lt;/b&gt;: Any, &lt;b&gt;weight&lt;/b&gt;=0:int): None&lt;/div&gt;&lt;div style=&quot;font-size: 14px;&quot;&gt;&lt;b&gt;__str__&lt;/b&gt;(): str&lt;/div&gt;&lt;div style=&quot;font-size: 14px;&quot;&gt;&lt;b&gt;getConnections&lt;/b&gt;(): list&lt;/div&gt;&lt;div style=&quot;font-size: 14px;&quot;&gt;&lt;b&gt;getId&lt;/b&gt;(): Any&lt;/div&gt;&lt;div style=&quot;font-size: 14px;&quot;&gt;&lt;b&gt;getWeight&lt;/b&gt;(&lt;b&gt;nbr&lt;/b&gt;: Any): int&lt;br&gt;&lt;/div&gt;" style="rounded=0;whiteSpace=wrap;html=1;align=left;verticalAlign=top;" parent="Do1l3_DUHeZ8VH6JxnVw-10" vertex="1">
          <mxGeometry y="100" width="320" height="120" as="geometry" />
        </mxCell>
        <mxCell id="Do1l3_DUHeZ8VH6JxnVw-17" style="edgeStyle=orthogonalEdgeStyle;rounded=0;orthogonalLoop=1;jettySize=auto;html=1;exitX=0;exitY=0.5;exitDx=0;exitDy=0;entryX=0.5;entryY=1;entryDx=0;entryDy=0;fontSize=16;" parent="1" source="Do1l3_DUHeZ8VH6JxnVw-13" target="Do1l3_DUHeZ8VH6JxnVw-9" edge="1">
          <mxGeometry relative="1" as="geometry" />
        </mxCell>
        <mxCell id="Do1l3_DUHeZ8VH6JxnVw-18" style="edgeStyle=orthogonalEdgeStyle;rounded=0;orthogonalLoop=1;jettySize=auto;html=1;entryX=0.5;entryY=1;entryDx=0;entryDy=0;fontSize=16;exitX=0.998;exitY=0.426;exitDx=0;exitDy=0;exitPerimeter=0;" parent="1" source="Do1l3_DUHeZ8VH6JxnVw-15" target="Do1l3_DUHeZ8VH6JxnVw-12" edge="1">
          <mxGeometry relative="1" as="geometry" />
        </mxCell>
        <mxCell id="Do1l3_DUHeZ8VH6JxnVw-13" value="Supported Functions" style="swimlane;startSize=30;fontSize=16;fillColor=#e1d5e7;strokeColor=#9673a6;" parent="1" vertex="1">
          <mxGeometry x="360" y="440" width="460" height="140" as="geometry" />
        </mxCell>
        <mxCell id="Do1l3_DUHeZ8VH6JxnVw-15" value="&lt;div style=&quot;font-size: 14px;&quot;&gt;&lt;b&gt;get_log(message&lt;/b&gt;: int, &lt;b&gt;log_type&lt;/b&gt;=&#39;INFO&#39;: str&lt;b&gt;): &lt;/b&gt;str&lt;/div&gt;&lt;div style=&quot;font-size: 14px;&quot;&gt;&lt;b&gt;save_path(path&lt;/b&gt;: list, &lt;b&gt;file_name&lt;/b&gt;: None, &lt;b&gt;mode&lt;/b&gt;=&#39;stdout&#39;&lt;b&gt;)&lt;/b&gt;: None&lt;/div&gt;" style="rounded=0;whiteSpace=wrap;html=1;align=left;verticalAlign=top;" parent="Do1l3_DUHeZ8VH6JxnVw-13" vertex="1">
          <mxGeometry y="30" width="460" height="110" as="geometry" />
        </mxCell>
      </root>
    </mxGraphModel>
  </diagram>
</mxfile>
